#!OML:ASF H:\Pregnant\Project 1\Capture day 1\Session 1\femalepreg.ASF
:FULLY-SPECIFIED
:DEGREES
270
root -9.22464 16.058 -6.59441 -157.07 -6.05899 180.235
lowerback -10.9056 -3.34646 -7.3653
upperback -4.5224 -4.31257 -2.39424
thorax 1.67211 -2.3861 1.09065
lowerneck -19.2831 -5.79616 -0.256824
upperneck 27.4439 -9.39632 7.46556
head 12.7781 -2.67139 1.44647
rclavicle -4.33351e-014 -3.18055e-015
rhumerus -58.9524 -6.63546 -60.0926
rradius 16.8909
rwrist 9.90202
rhand -14.9864 -24.8157
rfingers 7.12502
rthumb 11.1779 -54.498
lclavicle -4.33351e-014 -3.18055e-015
lhumerus -12.2641 -16.6719 86.942
lradius 60.4371
lwrist 40.3648
lhand -27.1862 -6.7702
lfingers 7.12502
lthumb -0.59995 23.2087
rfemur -60.905 9.97609 17.6835
rtibia 40.2643
rfoot -7.95558 -19.1139
rtoes -14.0789
lfemur -24.1487 -14.2808 -16.6977
ltibia 27.2603
lfoot -17.0846 -5.75931
ltoes -24.9635
271
root -9.2193 16.0631 -6.78835 -156.891 -6.23682 180.032
lowerback -11.2828 -3.41293 -7.22837
upperback -4.63462 -4.39838 -2.2499
thorax 1.76814 -2.43412 1.13247
lowerneck -19.2474 -5.92857 -0.290953
upperneck 27.3697 -9.56246 7.41414
head 12.7466 -2.7629 1.40293
rclavicle -2.32578e-014 -8.5875e-014
rhumerus -59.415 -6.04332 -60.4773
rradius 17.1468
rwrist 8.52672
rhand -15.3821 -24.0564
rfingers 7.12502
rthumb 10.7962 -53.7589
lclavicle -2.32578e-014 -8.5875e-014
lhumerus -12.4565 -18.4598 86.8125
lradius 61.1843
lwrist 39.0439
lhand -27.2186 -7.38696
lfingers 7.12502
lthumb -0.631241 22.5919
rfemur -61.0151 10.5247 16.7762
rtibia 38.4966
rfoot -8.25448 -19.9952
rtoes -14.2134
lfemur -23.1054 -14.4337 -16.8859
ltibia 26.3467
lfoot -16.6475 -6.12628
ltoes -25.2186
272
root -9.21499 16.0637 -6.98536 -156.741 -6.37699 179.832
lowerback -11.696 -3.45551 -7.0674
upperback -4.74183 -4.45238 -2.09366
thorax 1.88573 -2.46677 1.17469
lowerneck -19.2107 -6.07024 -0.351071
upperneck 27.3348 -9.72616 7.33566
head 12.7301 -2.85733 1.35459
rclavicle 3.77691e-014 6.36111e-015
rhumerus -59.8546 -5.56614 -60.7737
rradius 17.3994
rwrist 7.10059
rhand -15.8138 -23.4142
rfingers 7.12502
rthumb 10.3798 -53.138
lclavicle 3.77691e-014 6.36111e-015
lhumerus -12.7469 -20.1601 86.6709
lradius 61.8185
lwrist 37.4924
lhand -27.133 -7.85034
lfingers 7.12502
lthumb -0.548517 22.1287
rfemur -61.0923 11.0498 15.9429
rtibia 36.9831
rfoot -8.61379 -20.8592
rtoes -14.232
lfemur -22.0623 -14.5909 -17.0863
ltibia 25.5203
lfoot -16.1931 -6.4931
ltoes -25.5408
273
root -9.21229 16.0595 -7.18515 -156.626 -6.48256 179.635
lowerback -12.1342 -3.47605 -6.88233
upperback -4.84576 -4.47853 -1.91663
thorax 2.0179 -2.48548 1.22715
lowerneck -19.1728 -6.21867 -0.4463
upperneck 27.3372 -9.87905 7.22159
head 12.727 -2.95371 1.30088
rclavicle 1.96797e-014 8.26944e-014
rhumerus -60.2637 -5.17587 -60.9839
rradius 17.6644
rwrist 5.61575
rhand -16.2582 -22.9431
rfingers 7.12502
rthumb 9.95103 -52.6879
lclavicle 1.96797e-014 8.26944e-014
lhumerus -13.149 -21.7379 86.5512
lradius 62.335
lwrist 35.7844
lhand -26.8848 -8.16997
lfingers 7.12502
lthumb -0.30884 21.8096
rfemur -61.1191 11.5134 15.2316
rtibia 35.7256
rfoot -9.04255 -21.6383
rtoes -14.0826
lfemur -21.0382 -14.7408 -17.3034
ltibia 24.8234
lfoot -15.7379 -6.86741
ltoes -25.9597
274
root -9.21097 16.0501 -7.3869 -156.557 -6.5637 179.443
lowerback -12.5672 -3.48308 -6.68566
upperback -4.94886 -4.48961 -1.70453
thorax 2.14872 -2.49555 1.31223
lowerneck -19.1286 -6.36824 -0.570822
upperneck 27.3736 -10.0082 7.04789
head 12.7322 -3.05002 1.23378
rclavicle -4.53229e-014 -9.22361e-014
rhumerus -60.6275 -4.84609 -61.1002
rradius 17.9414
rwrist 4.09314
rhand -16.6698 -22.6626
rfingers 7.12502
rthumb 9.55392 -52.426
lclavicle -4.53229e-014 -9.22361e-014
lhumerus -13.6699 -23.1535 86.4834
lradius 62.7224
lwrist 34.007
lhand -26.4743 -8.40364
lfingers 7.12502
lthumb 0.0876196 21.5761
rfemur -61.0628 11.8881 14.6863
rtibia 34.7075
rfoot -9.47621 -22.276
rtoes -13.9073
lfemur -20.0446 -14.8776 -17.536
ltibia 24.2918
lfoot -15.293 -7.2615
ltoes -26.4732
275
root -9.21069 16.0352 -7.59042 -156.536 -6.6227 179.25
lowerback -12.9873 -3.48146 -6.49273
upperback -5.04763 -4.49086 -1.45383
thorax 2.27929 -2.49943 1.44194
lowerneck -19.088 -6.51597 -0.723147
upperneck 27.437 -10.1096 6.81215
head 12.7446 -3.1453 1.1523
rclavicle -3.66758e-014 1.74931e-014
rhumerus -60.9329 -4.57364 -61.116
rradius 18.2317
rwrist 2.56793
rhand -17.0055 -22.5565
rfingers 7.12502
rthumb 9.23002 -52.3344
lclavicle -3.66758e-014 1.74931e-014
lhumerus -14.3044 -24.406 86.4796
lradius 62.9808
lwrist 32.283
lhand -25.9223 -8.56894
lfingers 7.12502
lthumb 0.620765 21.4099
rfemur -60.9073 12.1598 14.3234
rtibia 33.9138
rfoot -9.88738 -22.7249
rtoes -13.7987
lfemur -19.0923 -14.9994 -17.7876
ltibia 23.9414
lfoot -14.8598 -7.68884
ltoes -27.0343
276
root -9.21183 16.015 -7.79571 -156.569 -6.65435 179.072
lowerback -13.3917 -3.46452 -6.28804
upperback -5.14276 -4.47598 -1.16077
thorax 2.40617 -2.49407 1.61322
lowerneck -19.0451 -6.6649 -0.895115
upperneck 27.5303 -10.183 6.49219
head 12.7621 -3.24169 1.04683
rclavicle 4.6118e-014 4.77083e-015
rhumerus -61.1823 -4.35079 -61.0237
rradius 18.5293
rwrist 1.07754
rhand -17.232 -22.6067
rfingers 7.12502
rthumb 9.01146 -52.3942
lclavicle 4.6118e-014 4.77083e-015
lhumerus -15.0568 -25.511 86.5602
lradius 63.1091
lwrist 30.7332
lhand -25.2705 -8.67412
lfingers 7.12502
lthumb 1.25028 21.302
rfemur -60.6294 12.3085 14.1914
rtibia 33.3252
rfoot -10.1844 -22.9189
rtoes -13.9738
lfemur -18.1743 -15.0946 -18.0466
ltibia 23.7731
lfoot -14.4302 -8.16094
ltoes -27.5705
